# xmcd
#
# Track frame offsets: 
#        150
#        13827
#        29973
#        42313
#        58126
#        73673
#        94282
#        114164
#        128796
#        144436
#        158217
#        171561
#        187031
#        210233
#
# Disc length: 3068 seconds
#
# Revision: 0
# Processed by: cddbd v1.5.2PL0 Copyright (c) Steve Scherf et al.
# Submitted via: ExactAudioCopy v1.0b4
#
DISCID=d10bfa0e
DTITLE=Billy Hamilton and The Lowriders - Pay Some Money
DYEAR=2016
DGENRE=Blues
TTITLE0=Pay Some Money
TTITLE1=One More Day in Prison Blues
TTITLE2=Fancy Man
TTITLE3=Don't Waste Your Time
TTITLE4=It Hurts
TTITLE5=Fever
TTITLE6=Big Mama's House Husband
TTITLE7=Never Gonna Learn (Until You Lose)
TTITLE8=Bad Man's Babies
TTITLE9=Donna Rae
TTITLE10=Something Is Wrong
TTITLE11=Bar Room Gasoline
TTITLE12=Use Me
TTITLE13=No Shame in My Game
EXTD=
EXTT0=
EXTT1=
EXTT2=
EXTT3=
EXTT4=
EXTT5=
EXTT6=
EXTT7=
EXTT8=
EXTT9=
EXTT10=
EXTT11=
EXTT12=
EXTT13=
PLAYORDER=
